<?xml version="1.0" standalone="no"?>
<!DOCTYPE svg PUBLIC "-//W3C//DTD SVG 20010904//EN"
 "http://www.w3.org/TR/2001/REC-SVG-20010904/DTD/svg10.dtd">
<svg version="1.0" xmlns="http://www.w3.org/2000/svg"
 width="1000.000000pt" height="1000.000000pt" viewBox="0 0 1000.000000 1000.000000"
 preserveAspectRatio="xMidYMid meet">
<metadata>
Created by potrace 1.14, written by Peter Selinger 2001-2017
</metadata>
<g transform="translate(0.000000,1000.000000) scale(0.100000,-0.100000)"
fill="#000000" stroke="none">
<path d="M0 5000 l0 -5000 5000 0 5000 0 0 5000 0 5000 -5000 0 -5000 0 0
-5000z m5528 2960 c566 -58 1019 -186 1347 -381 147 -88 228 -150 345 -268
208 -210 334 -455 391 -757 29 -158 32 -466 6 -623 -77 -456 -304 -799 -687
-1038 -215 -134 -505 -238 -842 -303 -32 -6 -58 -14 -58 -17 0 -3 17 -24 38
-47 20 -23 451 -507 957 -1076 506 -568 919 -1038 917 -1044 -1 -6 -42 -100
-90 -208 l-87 -197 -736 -1 -736 0 -95 44 -94 44 -129 154 c-378 450 -722 864
-723 871 0 5 -13 17 -27 29 -20 15 -23 23 -15 34 13 15 4 38 -11 29 -5 -3 -6
1 -3 9 3 9 10 16 16 16 5 0 6 -6 2 -12 -4 -7 -3 -10 1 -5 18 16 15 46 -5 52
-11 4 -18 10 -15 15 3 5 1 10 -4 12 -5 1 2 12 17 22 14 11 22 14 18 8 -5 -8
-1 -10 10 -5 14 5 12 9 -11 21 -22 11 -25 16 -14 24 11 7 8 9 -8 5 -19 -4 -20
-3 -10 14 7 11 13 15 15 9 2 -6 8 -8 12 -5 5 3 2 18 -5 32 -10 18 -11 31 -5
37 6 6 10 15 10 21 0 5 -5 3 -10 -5 -8 -13 -10 -13 -10 2 0 9 8 19 18 21 12 3
10 5 -8 7 -23 2 -23 2 -4 8 18 6 -83 131 -789 972 l-810 965 694 6 c684 6 889
13 889 31 0 5 5 6 11 3 6 -4 13 2 16 13 3 12 12 23 22 25 11 3 9 5 -6 6 -17 1
-21 5 -16 18 5 12 3 14 -8 8 -8 -4 -11 -4 -6 0 4 5 0 19 -8 31 -16 25 -8 38
15 23 10 -5 11 -9 3 -9 -7 0 -10 -7 -7 -15 4 -11 9 -11 18 -2 7 6 13 16 13 22
0 5 2 15 4 20 2 6 0 11 -6 11 -5 1 -9 -2 -7 -7 2 -10 -12 -12 -21 -2 -4 3 -2
12 4 20 9 10 8 13 0 13 -7 0 -9 5 -6 10 3 6 0 10 -7 10 -10 0 -9 3 2 9 8 6 18
7 24 4 5 -4 7 1 3 10 -7 19 -5 20 118 37 197 28 383 93 469 164 104 85 155
293 110 446 -32 107 -160 198 -359 254 -98 27 -242 56 -283 56 -14 0 -34 8
-45 18 -11 9 -17 11 -13 5 4 -7 3 -13 -2 -13 -6 0 -13 7 -16 16 -3 8 -2 12 4
9 10 -6 32 29 23 39 -3 3 -12 -2 -20 -12 -8 -9 -12 -11 -8 -5 17 35 27 143 13
143 -6 0 -4 8 5 18 10 10 17 23 17 28 0 5 -5 1 -11 -8 -5 -10 -14 -18 -18 -18
-5 0 -8 8 -7 18 1 14 -11 18 -74 23 -41 4 -434 7 -872 8 l-798 1 0 -2340 0
-2340 -610 0 -610 0 0 2750 0 2751 1485 -3 c1458 -3 1485 -3 1491 16 4 12 0
24 -11 32 -12 9 -15 19 -10 35 4 12 3 19 -2 16 -5 -4 -10 0 -10 8 0 11 3 12
14 3 8 -6 12 -17 9 -24 -6 -15 21 -40 31 -30 4 4 3 10 -2 14 -13 9 -18 29 -17
70 0 17 -4 35 -9 38 -6 3 -5 12 3 22 8 10 9 13 1 9 -6 -4 -14 -3 -17 2 -16 25
99 25 332 1z m-328 -50 c0 -5 -2 -10 -4 -10 -3 0 -8 5 -11 10 -3 6 -1 10 4 10
6 0 11 -4 11 -10z m11 -1067 c0 -5 2 -15 4 -23 1 -9 -3 -29 -11 -45 -12 -27
-12 -28 -9 -5 2 14 4 26 6 28 6 7 4 29 -4 40 -6 8 -6 12 2 12 6 0 11 -3 12 -7z"/>
<path d="M5219 7940 c-8 -6 -8 -9 0 -14 6 -4 11 -1 11 6 0 11 2 10 9 0 7 -11
9 -11 14 0 5 15 -14 20 -34 8z"/>
<path d="M5240 7755 c0 -8 2 -15 4 -15 2 0 6 7 10 15 3 8 1 15 -4 15 -6 0 -10
-7 -10 -15z"/>
<path d="M5323 7733 c9 -2 23 -2 30 0 6 3 -1 5 -18 5 -16 0 -22 -2 -12 -5z"/>
<path d="M5268 6903 c7 -3 16 -2 19 1 4 3 -2 6 -13 5 -11 0 -14 -3 -6 -6z"/>
<path d="M5236 6767 c3 -10 9 -15 12 -12 3 3 0 11 -7 18 -10 9 -11 8 -5 -6z"/>
<path d="M5241 5686 c-9 -11 -9 -16 1 -22 7 -4 10 -4 6 1 -4 4 -3 14 3 22 6 7
9 13 6 13 -2 0 -10 -6 -16 -14z"/>
<path d="M5268 5483 c7 -3 16 -2 19 1 4 3 -2 6 -13 5 -11 0 -14 -3 -6 -6z"/>
<path d="M5250 3471 c0 -5 7 -12 16 -15 14 -5 15 -4 4 9 -14 17 -20 19 -20 6z"/>
<path d="M5360 3346 c0 -2 8 -10 18 -17 15 -13 16 -12 3 4 -13 16 -21 21 -21
13z"/>
<path d="M5204 3299 c-3 -5 6 -9 20 -9 31 0 34 6 6 13 -11 3 -23 1 -26 -4z"/>
<path d="M5235 3209 c-4 -6 -5 -12 -2 -15 2 -3 7 2 10 11 7 17 1 20 -8 4z"/>
<path d="M5216 3158 c3 -5 10 -6 15 -3 13 9 11 12 -6 12 -8 0 -12 -4 -9 -9z"/>
</g>
</svg>
